<mxfile host="app.diagrams.net" agent="Mozilla/5.0 (Windows NT 10.0; Win64; x64) AppleWebKit/537.36 (KHTML, like Gecko) Chrome/109.0.0.0 Safari/537.36" version="27.1.4">
  <diagram name="第 1 页" id="f-ftjD8193IAsL0YfasJ">
    <mxGraphModel dx="1810" dy="494" grid="1" gridSize="10" guides="1" tooltips="1" connect="1" arrows="1" fold="1" page="1" pageScale="1" pageWidth="827" pageHeight="1169" math="0" shadow="0">
      <root>
        <mxCell id="0" />
        <mxCell id="1" parent="0" />
        <mxCell id="Yj97vgbJHo3z9aWgrQ7T-8" style="edgeStyle=orthogonalEdgeStyle;rounded=0;orthogonalLoop=1;jettySize=auto;html=1;exitX=0;exitY=0.25;exitDx=0;exitDy=0;entryX=1;entryY=0.5;entryDx=0;entryDy=0;startArrow=classic;startFill=0;endArrow=none;" edge="1" parent="1" source="Yj97vgbJHo3z9aWgrQ7T-1" target="Yj97vgbJHo3z9aWgrQ7T-6">
          <mxGeometry relative="1" as="geometry">
            <mxPoint x="240" y="172.33333333333326" as="targetPoint" />
          </mxGeometry>
        </mxCell>
        <mxCell id="Yj97vgbJHo3z9aWgrQ7T-9" style="edgeStyle=orthogonalEdgeStyle;rounded=0;orthogonalLoop=1;jettySize=auto;html=1;exitX=1;exitY=0.5;exitDx=0;exitDy=0;entryX=0;entryY=0.5;entryDx=0;entryDy=0;" edge="1" parent="1" source="Yj97vgbJHo3z9aWgrQ7T-1" target="Yj97vgbJHo3z9aWgrQ7T-12">
          <mxGeometry relative="1" as="geometry">
            <mxPoint x="490" y="195.19047619047615" as="targetPoint" />
          </mxGeometry>
        </mxCell>
        <mxCell id="Yj97vgbJHo3z9aWgrQ7T-1" value="Qwen2.5-VL-3B-Instruct" style="rounded=0;whiteSpace=wrap;html=1;fillColor=#dae8fc;strokeColor=#6c8ebf;" vertex="1" parent="1">
          <mxGeometry x="320" y="150" width="120" height="90" as="geometry" />
        </mxCell>
        <mxCell id="Yj97vgbJHo3z9aWgrQ7T-6" value="&lt;div&gt;&lt;b&gt;&lt;font style=&quot;color: rgb(255, 0, 0);&quot;&gt;Prompt:&lt;/font&gt;&lt;/b&gt;&lt;/div&gt;&lt;div&gt;以下是当前的任务描述：&lt;b&gt;&lt;font style=&quot;color: rgb(255, 0, 0);&quot;&gt;{current_task}&lt;/font&gt;&lt;/b&gt;。生成一个非常简短、清晰且完整的一句话，描述机器人臂执行的动作（最多 30 个字符）。不要包含不必要的词语。&lt;/div&gt;&lt;div&gt;简洁明了。&lt;/div&gt;&lt;div&gt;以下是一些示例：拾取立方体并将其放入盒子，打开抽屉等等。&lt;/div&gt;&lt;div&gt;直接以动词开始，如“Pick”、“Place”、“Open”等。&lt;/div&gt;&lt;div&gt;与提供的示例类似，机器人臂执行的主要动作是什么？&lt;/div&gt;" style="rounded=0;whiteSpace=wrap;html=1;align=left;" vertex="1" parent="1">
          <mxGeometry x="-50" y="50" width="290" height="140" as="geometry" />
        </mxCell>
        <mxCell id="Yj97vgbJHo3z9aWgrQ7T-13" style="edgeStyle=orthogonalEdgeStyle;rounded=0;orthogonalLoop=1;jettySize=auto;html=1;exitX=1;exitY=0.5;exitDx=0;exitDy=0;entryX=0;entryY=0.75;entryDx=0;entryDy=0;" edge="1" parent="1" source="Yj97vgbJHo3z9aWgrQ7T-10" target="Yj97vgbJHo3z9aWgrQ7T-1">
          <mxGeometry relative="1" as="geometry" />
        </mxCell>
        <mxCell id="Yj97vgbJHo3z9aWgrQ7T-10" value="对应数据集的视频/视频帧" style="rounded=0;whiteSpace=wrap;html=1;" vertex="1" parent="1">
          <mxGeometry x="-50" y="220" width="290" height="60" as="geometry" />
        </mxCell>
        <mxCell id="Yj97vgbJHo3z9aWgrQ7T-12" value="输出被处理的任务描述" style="rounded=0;whiteSpace=wrap;html=1;fillColor=#d5e8d4;strokeColor=#82b366;" vertex="1" parent="1">
          <mxGeometry x="510" y="165" width="120" height="60" as="geometry" />
        </mxCell>
      </root>
    </mxGraphModel>
  </diagram>
</mxfile>
